# File created by Blade
# Date/Time:  Wed Jan 21 16:09:38 2015
# Frame Rate: 120.000 fps
#------------------------------------------------------
:FULLY-SPECIFIED
:DEGREES
806
root 17.321630 35.452132 -22.360958 -174.323789 1.616847 -176.150627
Spine -10.906507 2.712030 1.551462
Head 2.521175 -2.983176 1.993512
LeftShoulder -11.699165 -33.887367 18.355724
LeftArm 10.814856 7.493760 -14.123095
LeftForeArm 6.697619 -0.000000 -2.236517
LeftHand -7.226230 0.000000 6.472711
LeftHandThumb1 -26.253704 0.000000 33.147579
RightShoulder -11.324988 -3.394607 -9.847656
RightArm 5.241275 41.600299 15.788460
RightForeArm -28.233925 -0.000000 6.590860
RightHand -13.826053 -0.000000 -7.959972
RightHandThumb1 -24.326973 -0.000000 -32.862282
LeftUpLeg 4.275330 -0.513259 5.539014
LeftLeg -14.655198 -0.000000 0.000000
LeftFoot 2.352761 24.219766 10.838449
LeftToeBase -143.016600 -0.000000 0.000000
RightUpLeg -1.185068 -10.288548 -5.247471
RightLeg 0.920499 -0.000000 -0.000000
RightFoot -13.058029 -17.837823 20.622914
RightToeBase 19.658030 -0.000000 -0.000000
807
root 17.376651 35.435604 -22.370735 -174.342510 1.551172 -176.323442
Spine -11.020516 2.662209 1.329516
Head 2.596950 -2.868110 1.946651
LeftShoulder -11.757854 -33.932060 18.400371
LeftArm 10.843744 7.514162 -14.033930
LeftForeArm 6.770551 -0.000000 -2.209363
LeftHand -7.224242 0.000000 6.322414
LeftHandThumb1 -26.253704 0.000000 33.147579
RightShoulder -11.275641 -3.359820 -9.870032
RightArm 5.238432 41.582499 15.981991
RightForeArm -28.355428 -0.000000 6.438059
RightHand -13.784681 0.000000 -7.596005
RightHandThumb1 -24.326973 -0.000000 -32.862282
LeftUpLeg 4.242008 -0.601949 5.462362
LeftLeg -14.555620 -0.000000 0.000000
LeftFoot 2.289075 24.265305 10.849844
LeftToeBase -142.932803 -0.000000 0.000000
RightUpLeg -1.146436 -10.483130 -5.345595
RightLeg 0.981514 -0.000000 -0.000000
RightFoot -13.428836 -17.654503 20.755779
RightToeBase 19.598708 -0.000000 -0.000000
808
root 17.434424 35.420889 -22.379601 -174.350947 1.496074 -176.480401
Spine -11.157110 2.628816 1.127301
Head 2.720448 -2.857399 1.867725
LeftShoulder -11.803416 -33.912216 18.409933
LeftArm 10.942924 7.606822 -13.927391
LeftForeArm 6.629111 -0.000000 -2.235614
LeftHand -7.163799 0.000000 6.272727
LeftHandThumb1 -26.253704 0.000000 33.147579
RightShoulder -11.312717 -3.376566 -9.816559
RightArm 5.428113 41.661916 16.199288
RightForeArm -28.504933 -0.000000 6.237976
RightHand -13.748671 -0.000000 -7.249685
RightHandThumb1 -24.326973 -0.000000 -32.862282
LeftUpLeg 4.203027 -0.690067 5.411167
LeftLeg -14.454041 -0.000000 0.000000
LeftFoot 2.242293 24.261170 10.860386
LeftToeBase -142.799656 -0.000000 0.000000
RightUpLeg -1.088097 -10.612578 -5.418555
RightLeg 0.980173 -0.000000 -0.000000
RightFoot -13.816321 -17.514335 20.794606
RightToeBase 19.823698 -0.000000 -0.000000
809
root 17.487585 35.407081 -22.388184 -174.328543 1.490058 -176.663650
Spine -11.325814 2.674786 0.892188
Head 2.830647 -2.859402 1.818273
LeftShoulder -11.844524 -33.929899 18.427492
LeftArm 11.000040 7.616889 -13.851734
LeftForeArm 6.663708 -0.000000 -2.189816
LeftHand -7.256610 -0.000000 6.151115
LeftHandThumb1 -26.253704 0.000000 33.147579
RightShoulder -11.426876 -3.513609 -9.729009
RightArm 5.758025 41.770156 16.468065
RightForeArm -28.635410 -0.000000 5.981137
RightHand -13.726339 -0.000000 -7.106058
RightHandThumb1 -24.326973 -0.000000 -32.862282
LeftUpLeg 4.140548 -0.646625 5.319639
LeftLeg -14.354997 -0.000000 0.000000
LeftFoot 2.138451 24.182556 10.789291
LeftToeBase -142.795300 -0.000000 0.000000
RightUpLeg -1.064704 -10.734134 -5.506147
RightLeg 0.947891 -0.000000 -0.000000
RightFoot -14.182786 -17.431055 20.647209
RightToeBase 20.336611 -0.000000 -0.000000
810
root 17.551960 35.394973 -22.398914 -174.341803 1.458419 -176.798002
Spine -11.449398 2.627370 0.713201
Head 2.953856 -2.725188 1.802655
LeftShoulder -11.926432 -33.935710 18.465608
LeftArm 11.033676 7.543748 -13.747331
LeftForeArm 6.873604 -0.000000 -2.142746
LeftHand -7.270532 0.000000 5.978894
LeftHandThumb1 -26.253704 0.000000 33.147579
RightShoulder -11.370731 -3.364825 -9.728083
RightArm 5.731437 41.668182 16.591865
RightForeArm -28.820664 -0.000000 5.902004
RightHand -13.655743 0.000000 -6.771683
RightHandThumb1 -24.326973 -0.000000 -32.862282
LeftUpLeg 4.113219 -0.567969 5.293530
LeftLeg -14.255828 -0.000000 0.000000
LeftFoot 2.027107 24.059608 10.730334
LeftToeBase -142.778151 -0.000000 0.000000
RightUpLeg -0.990760 -10.785510 -5.520746
RightLeg 0.890070 -0.000000 -0.000000
RightFoot -14.578032 -17.470134 20.605863
RightToeBase 20.640500 -0.000000 -0.000000
811
root 17.614690 35.383525 -22.406360 -174.332422 1.455641 -176.934899
Spine -11.590496 2.663518 0.516267
Head 3.063429 -2.722891 1.769947
LeftShoulder -11.973438 -33.965716 18.478566
LeftArm 11.123452 7.569649 -13.655601
LeftForeArm 6.956666 -0.000000 -2.134028
LeftHand -7.299926 0.000000 5.982179
LeftHandThumb1 -26.253704 0.000000 33.147579
RightShoulder -11.390737 -3.322384 -9.682341
RightArm 5.736736 41.607411 16.711519
RightForeArm -29.049139 -0.000000 5.863958
RightHand -13.561334 0.000000 -6.456421
RightHandThumb1 -24.326973 -0.000000 -32.862282
LeftUpLeg 4.057410 -0.424582 5.256729
LeftLeg -14.147868 -0.000000 0.000000
LeftFoot 1.902499 23.921252 10.660655
LeftToeBase -142.774408 -0.000000 0.000000
RightUpLeg -0.905749 -10.731023 -5.536169
RightLeg 0.738337 -0.000000 -0.000000
RightFoot -14.956287 -17.651731 20.535296
RightToeBase 21.013319 -0.000000 -0.000000
812
root 17.682090 35.373225 -22.414774 -174.324131 1.433292 -177.045928
Spine -11.727698 2.646589 0.358570
Head 3.164905 -2.650103 1.769912
LeftShoulder -12.032225 -33.965901 18.474900
LeftArm 11.193697 7.633248 -13.502190
LeftForeArm 6.969300 -0.000000 -2.125397
LeftHand -7.104473 -0.000000 5.943820
LeftHandThumb1 -26.253704 0.000000 33.147579
RightShoulder -11.419703 -3.364476 -9.597068
RightArm 5.872467 41.638400 16.863297
RightForeArm -29.186426 -0.000000 5.769643
RightHand -13.489974 -0.000000 -6.243295
RightHandThumb1 -24.326973 -0.000000 -32.862282
LeftUpLeg 3.997814 -0.301449 5.257340
LeftLeg -14.028954 -0.000000 0.000000
LeftFoot 1.777781 23.774345 10.611241
LeftToeBase -142.721513 -0.000000 0.000000
RightUpLeg -0.828996 -10.773282 -5.510698
RightLeg 0.603138 -0.000000 -0.000000
RightFoot -15.308127 -17.772669 20.452618
RightToeBase 21.523812 -0.000000 -0.000000
813
root 17.750470 35.362890 -22.426231 -174.323353 1.406855 -177.173568
Spine -11.864797 2.616861 0.174873
Head 3.255623 -2.613935 1.800338
LeftShoulder -12.105704 -33.907022 18.506085
LeftArm 11.274221 7.634078 -13.386343
LeftForeArm 7.032850 0.000000 -2.100035
LeftHand -7.124102 0.000000 5.836071
LeftHandThumb1 -26.253704 0.000000 33.147579
RightShoulder -11.448310 -3.312715 -9.519956
RightArm 5.951793 41.618757 16.984529
RightForeArm -29.438109 0.000000 5.766462
RightHand -13.510483 -0.000000 -6.037186
RightHandThumb1 -24.326973 -0.000000 -32.862282
LeftUpLeg 3.952017 -0.164170 5.239087
LeftLeg -13.921068 -0.000000 0.000000
LeftFoot 1.640279 23.617658 10.516630
LeftToeBase -142.805215 -0.000000 0.000000
RightUpLeg -0.727541 -10.881057 -5.492691
RightLeg 0.437771 -0.000000 -0.000000
RightFoot -15.651064 -17.887139 20.376254
RightToeBase 21.621818 -0.000000 -0.000000
814
root 17.820051 35.351594 -22.438841 -174.342252 1.385204 -177.284911
Spine -11.976037 2.639881 0.005164
Head 3.369208 -2.609079 1.800724
LeftShoulder -12.107730 -33.866118 18.506136
LeftArm 11.341558 7.684624 -13.266002
LeftForeArm 6.980585 -0.000000 -2.088202
LeftHand -6.592080 -0.000000 5.356861
LeftHandThumb1 -26.253704 0.000000 33.147579
RightShoulder -11.457408 -3.262382 -9.480305
RightArm 5.877131 41.492912 17.040605
RightForeArm -29.611161 -0.000000 5.770964
RightHand -13.347287 -0.000000 -5.842761
RightHandThumb1 -24.326973 -0.000000 -32.862282
LeftUpLeg 3.940379 -0.070112 5.239077
LeftLeg -13.832491 -0.000000 0.000000
LeftFoot 1.551381 23.515073 10.455772
LeftToeBase -142.778105 -0.000000 0.000000
RightUpLeg -0.575889 -10.916205 -5.465121
RightLeg 0.217658 -0.000000 -0.000000
RightFoot -15.963191 -18.048241 20.311596
RightToeBase 21.840824 -0.000000 -0.000000
815
root 17.887814 35.340709 -22.450035 -174.367121 1.358073 -177.418982
Spine -12.055509 2.569052 -0.168717
Head 3.384972 -2.545630 1.837051
LeftShoulder -12.181758 -33.831161 18.530083
LeftArm 11.375639 7.834379 -13.094392
LeftForeArm 6.813852 -0.000000 -2.105495
LeftHand -6.169015 -0.000000 4.732722
LeftHandThumb1 -26.253704 0.000000 33.147579
RightShoulder -11.452235 -3.256959 -9.412351
RightArm 5.950924 41.464219 17.153602
RightForeArm -29.798561 -0.000000 5.775894
RightHand -13.330330 -0.000000 -5.737876
RightHandThumb1 -24.326973 -0.000000 -32.862282
LeftUpLeg 3.909226 0.007497 5.210551
LeftLeg -13.706423 -0.000000 0.000000
LeftFoot 1.448653 23.437372 10.395625
LeftToeBase -142.811682 -0.000000 0.000000
RightUpLeg -0.438622 -10.983554 -5.463518
RightLeg 0.040434 -0.000000 -0.000000
RightFoot -16.339602 -18.191843 20.179963
RightToeBase 22.543759 -0.000000 -0.000000
